<svg id="Collapse-Categories--Streamline-Carbon.svg" xmlns="http://www.w3.org/2000/svg" viewBox="-0.5 -0.5 16 16" height="16" width="16"><desc>Collapse Categories Streamline Icon: https://streamlinehq.com</desc><defs></defs><title>collapse-categories</title><path d="M6.5625 11.71875h6.5625v0.9375H6.5625Z" fill="#ffffff" stroke-width="1"></path><path d="m3.3609375 12.1875 -1.209375 1.209375L2.8125 14.0625l1.875 -1.875 -1.875 -1.875 -0.6656249999999999 0.6609375L3.3609375 12.1875z" fill="#ffffff" stroke-width="1"></path><path d="M6.5625 7.03125h6.5625v0.9375H6.5625Z" fill="#ffffff" stroke-width="1"></path><path d="m3.3609375 7.5 -1.209375 1.209375L2.8125 9.375l1.875 -1.875 -1.875 -1.875 -0.6656249999999999 0.6609375L3.3609375 7.5z" fill="#ffffff" stroke-width="1"></path><path d="M6.5625 2.34375h6.5625v0.9375H6.5625Z" fill="#ffffff" stroke-width="1"></path><path d="M3.3609375 2.8125 2.1515625 4.021875 2.8125 4.6875l1.875 -1.875 -1.875 -1.875 -0.6656249999999999 0.6609375L3.3609375 2.8125z" fill="#ffffff" stroke-width="1"></path><path id="_Transparent_Rectangle_" d="M0 0h15v15H0Z" fill="none" stroke-width="1"></path></svg>