<svg id="Delivery--Streamline-Carbon.svg" xmlns="http://www.w3.org/2000/svg" viewBox="-0.5 -0.5 16 16" height="16" width="16"><desc>Delivery Streamline Icon: https://streamlinehq.com</desc><defs></defs><path d="M1.875 7.5h5.625v0.9375H1.875Z" fill="#ffffff" stroke-width="1"></path><path d="M0.9375 5.15625h4.6875v0.9375H0.9375Z" fill="#ffffff" stroke-width="1"></path><path d="m14.024484375 7.78425 -1.40625 -3.28125A0.46804687500000003 0.46804687500000003 0 0 0 12.1875 4.21875h-1.40625V3.28125a0.46875 0.46875 0 0 0 -0.46875 -0.46875H2.8125v0.9375h7.03125v5.8857187500000006A1.8714374999999999 1.8714374999999999 0 0 0 8.972859374999999 10.78125h-2.94571875a1.875 1.875 0 1 0 0 0.9375h2.94571875a1.8659062499999999 1.8659062499999999 0 0 0 3.61678125 0H13.59375a0.46875 0.46875 0 0 0 0.46875 -0.46875v-3.28125a0.46710937500000005 0.46710937500000005 0 0 0 -0.038015625000000004 -0.1845ZM4.21875 12.1875a0.9375 0.9375 0 1 1 0.9375 -0.9375 0.938578125 0.938578125 0 0 1 -0.9375 0.9375Zm6.5625 -7.03125h1.09725l1.004578125 2.34375H10.78125Zm0 7.03125a0.9375 0.9375 0 1 1 0.9375 -0.9375 0.938578125 0.938578125 0 0 1 -0.9375 0.9375Zm2.34375 -1.40625h-0.535359375A1.87284375 1.87284375 0 0 0 10.78125 9.375v-0.9375h2.34375Z" fill="#ffffff" stroke-width="1"></path><path id="_Transparent_Rectangle_" d="M0 0h15v15H0Z" fill="none" stroke-width="1"></path></svg>